<svg xmlns="http://www.w3.org/2000/svg" version="1.1" xmlns:xlink="http://www.w3.org/1999/xlink" xmlns:svgjs="http://svgjs.dev/svgjs" width="1000" height="169" viewBox="0 0 1000 169"><g transform="matrix(1,0,0,1,-0.6060585502424374,-0.5630909186993875)"><svg viewBox="0 0 396 67" data-background-color="#ffffff" preserveAspectRatio="xMidYMid meet" height="169" width="1000" xmlns="http://www.w3.org/2000/svg" xmlns:xlink="http://www.w3.org/1999/xlink"><g id="tight-bounds" transform="matrix(1,0,0,1,0.23999931309975864,0.2232372281234234)"><svg viewBox="0 0 395.52 66.55352554375315" height="66.55352554375315" width="395.52"><g><svg viewBox="0 0 395.52 66.55352554375315" height="66.55352554375315" width="395.52"><g><svg viewBox="0 0 395.52 66.55352554375315" height="66.55352554375315" width="395.52"><g><svg viewBox="0 0 395.52 66.55352554375315" height="66.55352554375315" width="395.52"><g><svg viewBox="0 0 395.52 66.55352554375315" height="66.55352554375315" width="395.52"><g transform="matrix(1,0,0,1,0,0)"><svg width="395.52" viewBox="2.1500000953674316 -37 296.5299987792969 49.900001525878906" height="66.55352554375315" data-palette-color="#010c80"><g class="undefined-text-0" data-fill-palette-color="primary" id="text-0"><path d="M2.15-17.45Q2.15-22.55 4.45-26.63 6.75-30.7 10.73-33 14.7-35.3 19.55-35.3L19.55-35.3Q25.25-35.3 29.5-32.55 33.75-29.8 35.7-24.75L35.7-24.75 30.25-24.75Q28.8-27.9 26.08-29.6 23.35-31.3 19.55-31.3L19.55-31.3Q15.9-31.3 13-29.6 10.1-27.9 8.45-24.78 6.8-21.65 6.8-17.45L6.8-17.45Q6.8-13.3 8.45-10.18 10.1-7.05 13-5.35 15.9-3.65 19.55-3.65L19.55-3.65Q23.35-3.65 26.08-5.33 28.8-7 30.25-10.15L30.25-10.15 35.7-10.15Q33.75-5.15 29.5-2.43 25.25 0.3 19.55 0.3L19.55 0.3Q14.7 0.3 10.73-1.98 6.75-4.25 4.45-8.3 2.15-12.35 2.15-17.45L2.15-17.45ZM61.35-27.4L66.05-27.4 49.55 12.9 44.85 12.9 50.25-0.3 39.2-27.4 44.25-27.4 52.85-5.2 61.35-27.4ZM75.15-22.3Q76.55-24.75 79.25-26.3 81.95-27.85 85.4-27.85L85.4-27.85Q89.09-27.85 92.05-26.1 95-24.35 96.7-21.18 98.4-18 98.4-13.8L98.4-13.8Q98.4-9.65 96.7-6.4 95-3.15 92.02-1.35 89.05 0.45 85.4 0.45L85.4 0.45Q81.84 0.45 79.17-1.1 76.5-2.65 75.15-5.05L75.15-5.05 75.15 0 70.59 0 70.59-37 75.15-37 75.15-22.3ZM93.75-13.8Q93.75-16.9 92.5-19.2 91.25-21.5 89.12-22.7 87-23.9 84.45-23.9L84.45-23.9Q81.95-23.9 79.82-22.68 77.7-21.45 76.42-19.13 75.15-16.8 75.15-13.75L75.15-13.75Q75.15-10.65 76.42-8.33 77.7-6 79.82-4.78 81.95-3.55 84.45-3.55L84.45-3.55Q87-3.55 89.12-4.78 91.25-6 92.5-8.33 93.75-10.65 93.75-13.8L93.75-13.8ZM129.39-14.75Q129.39-13.45 129.24-12L129.24-12 107.34-12Q107.59-7.95 110.12-5.68 112.64-3.4 116.24-3.4L116.24-3.4Q119.19-3.4 121.17-4.78 123.14-6.15 123.94-8.45L123.94-8.45 128.84-8.45Q127.74-4.5 124.44-2.02 121.14 0.45 116.24 0.45L116.24 0.45Q112.34 0.45 109.27-1.3 106.19-3.05 104.44-6.28 102.69-9.5 102.69-13.75L102.69-13.75Q102.69-18 104.39-21.2 106.09-24.4 109.17-26.13 112.24-27.85 116.24-27.85L116.24-27.85Q120.14-27.85 123.14-26.15 126.14-24.45 127.77-21.48 129.39-18.5 129.39-14.75L129.39-14.75ZM124.69-15.7Q124.69-18.3 123.54-20.18 122.39-22.05 120.42-23.03 118.44-24 116.04-24L116.04-24Q112.59-24 110.17-21.8 107.74-19.6 107.39-15.7L107.39-15.7 124.69-15.7ZM139.94-22.95Q141.14-25.3 143.37-26.6 145.59-27.9 148.79-27.9L148.79-27.9 148.79-23.2 147.59-23.2Q139.94-23.2 139.94-14.9L139.94-14.9 139.94 0 135.39 0 135.39-27.4 139.94-27.4 139.94-22.95ZM187.89 6.6L181.99 6.6 175.04-0.35Q172.49 0.35 169.84 0.35L169.84 0.35Q164.99 0.35 160.99-1.93 156.99-4.2 154.66-8.28 152.34-12.35 152.34-17.45L152.34-17.45Q152.34-22.55 154.66-26.63 156.99-30.7 160.99-32.98 164.99-35.25 169.84-35.25L169.84-35.25Q174.74-35.25 178.74-32.98 182.74-30.7 185.04-26.65 187.34-22.6 187.34-17.45L187.34-17.45Q187.34-12.45 185.14-8.45 182.94-4.45 179.09-2.15L179.09-2.15 187.89 6.6ZM156.99-17.45Q156.99-13.3 158.66-10.15 160.34-7 163.26-5.3 166.19-3.6 169.84-3.6L169.84-3.6Q173.49-3.6 176.41-5.3 179.34-7 181.01-10.15 182.69-13.3 182.69-17.45L182.69-17.45Q182.69-21.65 181.01-24.78 179.34-27.9 176.44-29.6 173.54-31.3 169.84-31.3L169.84-31.3Q166.14-31.3 163.24-29.6 160.34-27.9 158.66-24.78 156.99-21.65 156.99-17.45L156.99-17.45ZM213.19-27.4L217.74-27.4 217.74 0 213.19 0 213.19-4.05Q211.89-1.95 209.56-0.78 207.24 0.4 204.44 0.4L204.44 0.4Q201.24 0.4 198.69-0.93 196.14-2.25 194.66-4.9 193.19-7.55 193.19-11.35L193.19-11.35 193.19-27.4 197.69-27.4 197.69-11.95Q197.69-7.9 199.74-5.73 201.79-3.55 205.34-3.55L205.34-3.55Q208.99-3.55 211.09-5.8 213.19-8.05 213.19-12.35L213.19-12.35 213.19-27.4ZM250.43-14.75Q250.43-13.45 250.28-12L250.28-12 228.38-12Q228.63-7.95 231.16-5.68 233.68-3.4 237.28-3.4L237.28-3.4Q240.23-3.4 242.21-4.78 244.18-6.15 244.98-8.45L244.98-8.45 249.88-8.45Q248.78-4.5 245.48-2.02 242.18 0.45 237.28 0.45L237.28 0.45Q233.38 0.45 230.31-1.3 227.23-3.05 225.48-6.28 223.73-9.5 223.73-13.75L223.73-13.75Q223.73-18 225.43-21.2 227.13-24.4 230.21-26.13 233.28-27.85 237.28-27.85L237.28-27.85Q241.18-27.85 244.18-26.15 247.18-24.45 248.81-21.48 250.43-18.5 250.43-14.75L250.43-14.75ZM245.73-15.7Q245.73-18.3 244.58-20.18 243.43-22.05 241.46-23.03 239.48-24 237.08-24L237.08-24Q233.63-24 231.21-21.8 228.78-19.6 228.43-15.7L228.43-15.7 245.73-15.7ZM260.98-22.95Q262.18-25.3 264.41-26.6 266.63-27.9 269.83-27.9L269.83-27.9 269.83-23.2 268.63-23.2Q260.98-23.2 260.98-14.9L260.98-14.9 260.98 0 256.43 0 256.43-27.4 260.98-27.4 260.98-22.95ZM293.98-27.4L298.68-27.4 282.18 12.9 277.48 12.9 282.88-0.3 271.83-27.4 276.88-27.4 285.48-5.2 293.98-27.4Z" fill="#010c80" data-fill-palette-color="primary"></path></g></svg></g></svg></g></svg></g></svg></g><g></g></svg></g><defs></defs></svg><rect width="395.52" height="66.55352554375315" fill="none" stroke="none" visibility="hidden"></rect></g></svg></g></svg>